<svg xmlns="http://www.w3.org/2000/svg" viewBox="0 0 1600 900">
  <defs>
    <linearGradient id="stageSky" x1="0" y1="0" x2="0" y2="1">
      <stop offset="0%" stop-color="#132238" />
      <stop offset="55%" stop-color="#334e68" />
      <stop offset="100%" stop-color="#f08a5d" />
    </linearGradient>
    <linearGradient id="stageSea" x1="0" y1="0" x2="0" y2="1">
      <stop offset="0%" stop-color="#1f4068" />
      <stop offset="100%" stop-color="#102a43" />
    </linearGradient>
    <linearGradient id="stageDeck" x1="0" y1="0" x2="1" y2="0">
      <stop offset="0%" stop-color="#302b27" />
      <stop offset="100%" stop-color="#18181b" />
    </linearGradient>
    <radialGradient id="spotlight" cx="50%" cy="42%" r="38%">
      <stop offset="0%" stop-color="#fff4c2" stop-opacity="0.9" />
      <stop offset="100%" stop-color="#fff4c2" stop-opacity="0" />
    </radialGradient>
  </defs>
  <rect width="1600" height="900" fill="url(#stageSky)" />
  <rect y="560" width="1600" height="170" fill="url(#stageSea)" />
  <rect y="700" width="1600" height="200" fill="url(#stageDeck)" />
  <rect y="520" width="1600" height="18" fill="#e5e7eb" opacity="0.55" />
  <circle cx="1180" cy="170" r="70" fill="#ffd6a5" opacity="0.72" />
  <rect x="210" y="205" width="28" height="410" fill="#22333b" />
  <rect x="1362" y="205" width="28" height="410" fill="#22333b" />
  <rect x="210" y="205" width="1180" height="16" fill="#f8fafc" opacity="0.6" />
  <rect x="320" y="640" width="960" height="24" rx="8" fill="#d97706" opacity="0.9" />
  <rect x="350" y="430" width="900" height="210" rx="18" fill="#3f3f46" />
  <rect x="380" y="455" width="840" height="160" rx="12" fill="#52525b" />
  <rect x="405" y="470" width="790" height="130" rx="10" fill="#71717a" opacity="0.85" />
  <polygon points="440,430 520,332 600,430" fill="#ef4444" opacity="0.78" />
  <polygon points="680,430 760,332 840,430" fill="#f59e0b" opacity="0.78" />
  <polygon points="920,430 1000,332 1080,430" fill="#ef4444" opacity="0.78" />
  <circle cx="480" cy="288" r="9" fill="#fde68a" />
  <circle cx="620" cy="274" r="9" fill="#fde68a" />
  <circle cx="760" cy="266" r="9" fill="#fde68a" />
  <circle cx="900" cy="274" r="9" fill="#fde68a" />
  <circle cx="1040" cy="288" r="9" fill="#fde68a" />
  <rect x="0" y="0" width="1600" height="900" fill="url(#spotlight)" />
  <path d="M0 742 C320 714 640 726 960 748 S1280 792 1600 760" stroke="#f59e0b" stroke-width="4" opacity="0.34" fill="none" />
  <path d="M0 780 C240 760 520 766 820 786 S1220 822 1600 798" stroke="#f8fafc" stroke-width="3" opacity="0.18" fill="none" />
</svg>
