<svg xmlns="http://www.w3.org/2000/svg" viewBox="0 0 1600 900">
  <defs>
    <linearGradient id="backWall" x1="0" y1="0" x2="0" y2="1">
      <stop offset="0%" stop-color="#341f3b" />
      <stop offset="100%" stop-color="#1f2937" />
    </linearGradient>
    <linearGradient id="backFloor" x1="0" y1="0" x2="0" y2="1">
      <stop offset="0%" stop-color="#5b4b49" />
      <stop offset="100%" stop-color="#2d1e1c" />
    </linearGradient>
    <linearGradient id="mirrorGlow" x1="0" y1="0" x2="0" y2="1">
      <stop offset="0%" stop-color="#fff7d6" stop-opacity="0.95" />
      <stop offset="100%" stop-color="#ffe4a3" stop-opacity="0.45" />
    </linearGradient>
  </defs>
  <rect width="1600" height="900" fill="url(#backWall)" />
  <rect y="660" width="1600" height="240" fill="url(#backFloor)" />
  <rect x="120" y="110" width="220" height="520" rx="24" fill="#5b1f33" opacity="0.92" />
  <rect x="1260" y="110" width="220" height="520" rx="24" fill="#5b1f33" opacity="0.92" />
  <rect x="440" y="130" width="460" height="360" rx="26" fill="#2f3e46" stroke="#f8fafc" stroke-width="10" />
  <rect x="458" y="148" width="424" height="324" rx="18" fill="url(#mirrorGlow)" opacity="0.88" />
  <circle cx="470" cy="180" r="11" fill="#fde68a" />
  <circle cx="470" cy="245" r="11" fill="#fde68a" />
  <circle cx="470" cy="310" r="11" fill="#fde68a" />
  <circle cx="470" cy="375" r="11" fill="#fde68a" />
  <circle cx="870" cy="180" r="11" fill="#fde68a" />
  <circle cx="870" cy="245" r="11" fill="#fde68a" />
  <circle cx="870" cy="310" r="11" fill="#fde68a" />
  <circle cx="870" cy="375" r="11" fill="#fde68a" />
  <rect x="990" y="180" width="260" height="340" rx="18" fill="#362417" />
  <rect x="1016" y="210" width="208" height="18" rx="9" fill="#ddb892" />
  <rect x="1046" y="228" width="8" height="210" fill="#e5e7eb" opacity="0.9" />
  <rect x="1162" y="228" width="8" height="210" fill="#e5e7eb" opacity="0.9" />
  <path d="M1038 250 Q1074 304 1110 250" stroke="#f87171" stroke-width="14" fill="none" stroke-linecap="round" />
  <path d="M1100 250 Q1136 316 1172 250" stroke="#fb7185" stroke-width="14" fill="none" stroke-linecap="round" />
  <rect x="420" y="560" width="520" height="34" rx="12" fill="#9a8c98" />
  <rect x="448" y="594" width="464" height="52" rx="12" fill="#c9ada7" opacity="0.82" />
  <rect x="1000" y="560" width="280" height="70" rx="16" fill="#7f5539" />
  <rect x="1030" y="578" width="74" height="34" rx="8" fill="#fca5a5" opacity="0.8" />
  <rect x="1120" y="578" width="58" height="34" rx="8" fill="#bfdbfe" opacity="0.8" />
  <rect x="1192" y="578" width="58" height="34" rx="8" fill="#fde68a" opacity="0.8" />
</svg>
