<svg xmlns="http://www.w3.org/2000/svg" viewBox="0 0 1600 900">
  <defs>
    <linearGradient id="dawnSky" x1="0" y1="0" x2="0" y2="1">
      <stop offset="0%" stop-color="#1d3557" />
      <stop offset="50%" stop-color="#457b9d" />
      <stop offset="100%" stop-color="#f4a261" />
    </linearGradient>
    <linearGradient id="dawnSea" x1="0" y1="0" x2="0" y2="1">
      <stop offset="0%" stop-color="#4ea8de" />
      <stop offset="100%" stop-color="#1d4e89" />
    </linearGradient>
    <linearGradient id="stone" x1="0" y1="0" x2="1" y2="0">
      <stop offset="0%" stop-color="#4b5563" />
      <stop offset="100%" stop-color="#1f2937" />
    </linearGradient>
  </defs>
  <rect width="1600" height="900" fill="url(#dawnSky)" />
  <rect y="480" width="1600" height="250" fill="url(#dawnSea)" />
  <circle cx="1240" cy="208" r="88" fill="#ffe8b6" opacity="0.7" />
  <path d="M0 740 L1120 622 L1600 696 L1600 900 L0 900 Z" fill="url(#stone)" />
  <rect x="900" y="440" width="28" height="182" fill="#dbeafe" opacity="0.92" />
  <rect x="872" y="396" width="84" height="56" rx="12" fill="#ef4444" />
  <rect x="888" y="348" width="52" height="60" rx="12" fill="#f8fafc" opacity="0.9" />
  <circle cx="914" cy="378" r="12" fill="#fff7cc" />
  <path d="M0 548 C240 560 480 534 720 548 S1200 594 1600 566" stroke="#f8fafc" stroke-width="4" opacity="0.24" fill="none" />
  <path d="M0 602 C220 626 470 590 760 612 S1240 658 1600 632" stroke="#fff7ed" stroke-width="3" opacity="0.22" fill="none" />
  <rect x="0" y="720" width="1600" height="28" fill="#d1d5db" opacity="0.28" />
  <rect x="118" y="682" width="240" height="18" rx="9" fill="#f8fafc" opacity="0.36" />
  <rect x="420" y="658" width="310" height="18" rx="9" fill="#f8fafc" opacity="0.3" />
</svg>
