<svg xmlns="http://www.w3.org/2000/svg" viewBox="0 0 1600 900">
  <defs>
    <linearGradient id="pierSky" x1="0" y1="0" x2="0" y2="1">
      <stop offset="0%" stop-color="#102a43" />
      <stop offset="58%" stop-color="#243b53" />
      <stop offset="100%" stop-color="#d97706" />
    </linearGradient>
    <linearGradient id="pierSea" x1="0" y1="0" x2="0" y2="1">
      <stop offset="0%" stop-color="#1f7a8c" />
      <stop offset="100%" stop-color="#102a43" />
    </linearGradient>
    <linearGradient id="pierDeck" x1="0" y1="0" x2="1" y2="0">
      <stop offset="0%" stop-color="#43302b" />
      <stop offset="100%" stop-color="#1f1b18" />
    </linearGradient>
  </defs>
  <rect width="1600" height="900" fill="url(#pierSky)" />
  <rect y="520" width="1600" height="190" fill="url(#pierSea)" />
  <rect y="690" width="1600" height="210" fill="url(#pierDeck)" />
  <circle cx="1248" cy="165" r="76" fill="#ffe8b6" opacity="0.68" />
  <rect x="168" y="250" width="26" height="430" fill="#22333b" />
  <rect x="1420" y="250" width="26" height="430" fill="#22333b" />
  <rect x="168" y="250" width="1278" height="14" fill="#f8fafc" opacity="0.4" />
  <path d="M200 264 C350 380 510 200 660 316 S965 432 1120 302 S1320 214 1426 306" stroke="#f8fafc" stroke-width="5" opacity="0.44" fill="none" />
  <circle cx="250" cy="304" r="16" fill="#fde68a" />
  <circle cx="390" cy="320" r="16" fill="#fde68a" />
  <circle cx="530" cy="286" r="16" fill="#fde68a" />
  <circle cx="670" cy="322" r="16" fill="#fde68a" />
  <circle cx="812" cy="354" r="16" fill="#fde68a" />
  <circle cx="958" cy="330" r="16" fill="#fde68a" />
  <circle cx="1102" cy="286" r="16" fill="#fde68a" />
  <circle cx="1248" cy="272" r="16" fill="#fde68a" />
  <circle cx="1376" cy="298" r="16" fill="#fde68a" />
  <rect x="284" y="612" width="1030" height="24" rx="12" fill="#fb923c" opacity="0.88" />
  <rect x="350" y="640" width="900" height="12" rx="6" fill="#f8fafc" opacity="0.28" />
  <path d="M0 584 C180 612 390 558 640 588 S1150 640 1600 602" stroke="#fff7ed" stroke-width="4" opacity="0.18" fill="none" />
  <path d="M0 624 C220 656 460 604 760 630 S1250 692 1600 650" stroke="#e0fbfc" stroke-width="3" opacity="0.16" fill="none" />
  <rect x="0" y="500" width="1600" height="20" fill="#e5e7eb" opacity="0.18" />
</svg>
